<svg width="512" height="512" xmlns="http://www.w3.org/2000/svg">
 <!-- Created with UXWing SVG Editor - https://uxwing.com/svg-icon-editor/ -->
 <defs>
  <filter height="200%" width="200%" y="-50%" x="-50%" id="svg_1_blur">
   <feGaussianBlur stdDeviation="0" in="SourceGraphic"/>
  </filter>
 </defs>
 <g>
  <title>background</title>
  <rect fill="none" id="canvas_background" height="514" width="514" y="-1" x="-1"/>
  <g display="none" overflow="visible" y="0" x="0" height="100%" width="100%" id="canvasGrid">
   <rect fill="url(#gridpattern)" stroke-width="0" y="0" x="0" height="100%" width="100%"/>
  </g>
 </g>
 <g>
  <title>Layer 1</title>
  <path filter="url(#svg_1_blur)" stroke="#FF0000" id="svg_1" d="m119.072544,427.000003c-56.57762,0 -102.464751,-49.01088 -102.464751,-109.44l0,0c0.034155,-48.50016 29.612313,-89.35776 70.478672,-103.67616l0,0c1.417429,-41.2224 33.079037,-74.12736 71.998565,-74.16384l0,0c12.466545,0 24.164604,3.4656 34.325692,9.43008l0,0c21.620063,-38.3952 60.966527,-64.13184 106.016863,-64.15008l0,0c67.404729,0.03648 122.223371,57.5472 123.77742,129.12096l0,0c40.336957,14.66496 69.368637,55.34016 69.402792,103.43904l0,0c0,60.42912 -45.887131,109.44 -102.464751,109.44l0,0l-271.0705,0l0,0zm283.50289,-181.032c-8.726581,-1.7328 -14.754924,-10.25088 -13.918129,-19.68096l0,0c0.290317,-3.11904 0.461091,-6.12864 0.461091,-9.06528l0,0c-0.119542,-52.87776 -40.166183,-95.6688 -89.673735,-95.74176l0,0c-38.407204,-0.03648 -71.076383,25.86432 -83.867399,62.1984l0,0c-2.08345,5.89152 -6.933448,10.28736 -12.773939,11.4912l0,0c-5.806336,1.20384 -11.851756,-0.94848 -15.830804,-5.63616l0,0c-7.104223,-8.26272 -16.838374,-13.33344 -27.88749,-13.33344l0,0c-20.919887,0.03648 -37.843648,18.11232 -37.911958,40.45632l0,0c0,2.48064 0.290317,5.03424 0.768486,7.73376l0,0c0.836795,4.85184 -0.13662,9.8496 -2.783626,13.89888l0,0c-2.647006,4.06752 -6.694364,6.76704 -11.21989,7.55136l0,0c-32.447171,5.70912 -57.243641,35.54976 -57.209486,71.70144l0,0c0.06831,40.29216 30.602806,72.8688 68.326912,72.97824l0,0l271.087577,0c37.724106,-0.10944 68.20737,-32.68608 68.292757,-72.97824l0,0c0.06831,-35.69568 -24.079217,-65.2992 -55.860367,-71.57376l0,0" stroke-width="0.001" fill="#9ACEE6"/>
  <text font-weight="normal" font-style="normal" opacity="0.69" stroke="#56aaff" transform="matrix(5.819717523369523,0,0,5.92866168474347,-1272.9161377362818,-1292.159510725017) " xml:space="preserve" text-anchor="start" font-family="Arvo, sans-serif" font-size="26" id="svg_2" y="281.051135" x="230.063713" fill-opacity="null" stroke-width="0.5" fill="#535F75">Gabs</text>
 </g>
</svg>